<svg width="100%" height="100%" viewBox="0 0 63 39" fill="none" xmlns="http://www.w3.org/2000/svg"><g clip-path="url(#clip0_4007_2215)"><path d="M38.6041 43.9077H41.4V54.5956H38.6041V43.9077ZM31.6924 37.3322C36.6187 37.3322 41.3433 35.3651 44.8267 31.8636C48.3101 28.3621 50.2671 23.6131 50.2671 18.6613C50.2667 17.7153 50.1959 16.7707 50.0553 15.8353H32.6846L27.0459 21.512H36.8963C36.4043 22.4243 35.6837 23.1916 34.8059 23.7379C33.9282 24.2841 32.9237 24.5904 31.8919 24.6265C30.8601 24.6625 29.8369 24.4269 28.9236 23.9431C28.0103 23.4594 27.2385 22.7442 26.6847 21.8684L22.5265 26.0481C23.8953 27.7649 25.7142 29.0629 27.7779 29.7956C29.8417 30.5284 32.0681 30.6667 34.2059 30.195C36.3437 29.7232 38.3078 28.6603 39.8765 27.126C41.4451 25.5917 42.5559 23.6472 43.0834 21.512H44.294C43.6781 24.2727 42.1829 26.756 40.0355 28.5849C37.888 30.4139 35.2055 31.4886 32.3952 31.646C29.5849 31.8034 26.8003 31.0348 24.464 29.457C22.1277 27.8791 20.3673 25.5782 19.4501 22.9034C18.5329 20.2286 18.5089 17.326 19.3818 14.6363C20.2547 11.9466 21.9768 9.61656 24.2868 7.99996C26.5967 6.38335 29.3683 5.56844 32.1808 5.67891C34.9933 5.78938 37.6932 6.81922 39.8705 8.61208L43.8838 4.57804C41.6202 2.60182 38.9143 1.20581 35.9973 0.509309C33.0802 -0.18719 30.0388 -0.163474 27.1329 0.578428C24.227 1.32033 21.5429 2.75836 19.3101 4.76965C17.0773 6.78094 15.3621 9.30569 14.311 12.1282C13.26 14.9506 12.9044 17.9869 13.2746 20.9776C13.6448 23.9682 14.7298 26.8243 16.4369 29.3019C18.1439 31.7794 20.4224 33.8047 23.0774 35.2046C25.7325 36.6046 28.6853 37.3377 31.6835 37.3412L31.6924 37.3322ZM14.6048 45.9695H8.76104L5.93615 48.818H11.6818C11.3749 49.7634 10.7693 50.5823 9.95722 51.1502C9.1451 51.7182 8.17076 52.0042 7.18219 51.9648C6.19362 51.9254 5.24484 51.5628 4.47998 50.932C3.71512 50.3013 3.17596 49.4368 2.94441 48.47C2.71286 47.5031 2.80156 46.4867 3.19705 45.5752C3.59253 44.6636 4.27319 43.9067 5.13563 43.4194C5.99807 42.9321 6.99516 42.7411 7.97546 42.8753C8.95575 43.0096 9.86567 43.4617 10.567 44.1632L12.5736 42.1461C11.3249 40.8958 9.67118 40.1376 7.91326 40.0095C6.15534 39.8813 4.41006 40.3918 2.99495 41.4479C1.57984 42.5041 0.588921 44.0358 0.202478 45.7643C-0.183965 47.4929 0.0597425 49.3034 0.889266 50.8666C1.71879 52.4298 3.079 53.6417 4.72245 54.2819C6.36589 54.9221 8.18336 54.948 9.8442 54.3549C11.505 53.7618 12.8989 52.5891 13.7722 51.0502C14.6454 49.5113 14.9401 47.7084 14.6026 45.9695H14.6048ZM25.0527 59.228C25.0527 60.3979 24.172 61.2047 22.8855 61.2047H20.8164V63.8941H19.8243V57.2424H22.8877C24.1742 57.2424 25.0437 58.0492 25.0437 59.237L25.0527 59.228ZM24.0493 59.228C24.0493 58.5557 23.5588 58.1075 22.7829 58.1075H20.8164V60.3598H22.7829C23.5499 60.3688 24.0404 59.9318 24.0404 59.237L24.0493 59.228ZM16.0563 60.0931L14.9883 59.9228C14.1366 59.7794 13.8066 59.5239 13.8066 58.9815C13.8066 58.3921 14.3841 57.9932 15.2447 57.9932C16.0374 58.0132 16.8001 58.3014 17.4096 58.8112L17.9581 58.0492C17.1862 57.4673 16.2474 57.1528 15.2826 57.1528C13.8066 57.1528 12.8412 57.9058 12.8412 59.0644C12.8412 60.0236 13.4387 60.5951 14.6494 60.7946L15.7642 60.9761C16.7274 61.1375 17.1019 61.4244 17.1019 62.0205C17.1019 62.6771 16.4487 63.1411 15.4944 63.1411C14.6717 63.1411 13.9337 62.8004 13.2158 62.0967L12.6093 62.8004C12.9803 63.1785 13.4221 63.4789 13.9093 63.6844C14.3964 63.8898 14.9193 63.9961 15.4476 63.9972C17.0261 63.9972 18.0852 63.1792 18.0852 61.9533C18.0807 60.9111 17.4475 60.3307 16.0473 60.1021L16.0563 60.0931ZM41.1236 39.9072C40.8637 39.6485 40.5227 39.4883 40.1585 39.454C39.7943 39.4197 39.4296 39.5134 39.1265 39.7191C38.8233 39.9249 38.6006 40.2299 38.4961 40.5822C38.3916 40.9345 38.4119 41.3124 38.5536 41.6514C38.6952 41.9903 38.9494 42.2694 39.2728 42.4411C39.5962 42.6128 39.9689 42.6664 40.3272 42.5929C40.6856 42.5194 41.0075 42.3232 41.2381 42.0378C41.4687 41.7524 41.5937 41.3955 41.5918 41.0278C41.5908 40.8198 41.5481 40.6141 41.4661 40.4231C41.3841 40.232 41.2646 40.0596 41.1146 39.9162L41.1236 39.9072ZM31.6924 12.6954C32.823 12.695 33.9299 13.0218 34.8807 13.6367L39.0389 9.45699C37.123 7.90781 34.7716 7.00246 32.3164 6.86868C29.8612 6.7349 27.4261 7.37944 25.3549 8.71137C23.2837 10.0433 21.6808 11.9953 20.7725 14.2921C19.8642 16.5888 19.6963 19.1142 20.2925 21.512H26.4685C25.976 20.6034 25.7272 19.5816 25.7466 18.547C25.7659 17.5124 26.0527 16.5007 26.5788 15.6113C27.1049 14.7219 27.8521 13.9854 28.7471 13.4742C29.6421 12.9629 30.6541 12.6945 31.6835 12.6954H31.6924ZM50.1088 51.3146C49.8691 51.6513 49.5495 51.9225 49.1791 52.1035C48.7812 52.2945 48.3446 52.3897 47.9038 52.3814C47.6091 52.395 47.3148 52.3472 47.0393 52.2412C46.7639 52.1351 46.5132 51.973 46.3029 51.7651C46.0983 51.5461 45.9396 51.2881 45.8362 51.0063C45.7328 50.7245 45.6868 50.4246 45.7009 50.1246V43.9077H42.8939V50.5347C42.8742 51.0997 42.969 51.6628 43.1725 52.1899C43.376 52.7169 43.684 53.1969 44.0778 53.6006C44.4725 53.9983 44.9444 54.3102 45.4641 54.5169C45.9838 54.7235 46.5403 54.8205 47.0989 54.8018C47.655 54.8073 48.2076 54.7132 48.7309 54.5239C49.2293 54.3428 49.6926 54.0758 50.0999 53.735V54.5956H52.8958V43.9077H50.0999L50.1088 51.3146ZM50.3964 60.0931L49.3285 59.9228C48.4768 59.7794 48.1445 59.5239 48.1445 58.9815C48.1445 58.3921 48.722 57.9932 49.5826 57.9932C50.3754 58.0125 51.1384 58.3008 51.7476 58.8112L52.296 58.0492C51.5242 57.4673 50.5854 57.1528 49.6205 57.1528C48.1468 57.1528 47.1814 57.9058 47.1814 59.0644C47.1814 60.0236 47.7767 60.5951 48.9873 60.7946L50.1021 60.9761C51.0675 61.1375 51.4399 61.4244 51.4399 62.0205C51.4399 62.6771 50.7866 63.1411 49.8323 63.1411C49.0096 63.1411 48.2716 62.8004 47.5515 62.0967L46.9473 62.8004C47.3176 63.1786 47.7591 63.4792 48.2459 63.6846C48.7327 63.8901 49.2553 63.9963 49.7833 63.9972C51.3641 63.9972 52.4231 63.1792 52.4231 61.9533C52.4209 60.9111 51.7877 60.3307 50.3875 60.1021L50.3964 60.0931ZM62.3627 49.2416C61.7963 48.7082 60.9967 48.366 59.9636 48.2151L57.9235 47.9081C57.5313 47.881 57.1503 47.7653 56.8087 47.5697C56.6995 47.4965 56.6111 47.3961 56.552 47.2782C56.493 47.1604 56.4655 47.0291 56.4721 46.8973C56.4739 46.7433 56.5169 46.5925 56.5965 46.4609C56.6762 46.3292 56.7895 46.2214 56.9247 46.1488C57.2943 45.9409 57.7145 45.8415 58.1376 45.8619C58.6856 45.8624 59.2302 45.9486 59.7518 46.1174C60.3347 46.3135 60.8952 46.5712 61.424 46.8861L62.7617 45.082C62.1116 44.6528 61.4046 44.3178 60.6615 44.087C59.9271 43.8628 59.1636 43.7503 58.3962 43.753C57.0495 43.753 55.9749 44.0608 55.1722 44.6764C54.7871 44.9578 54.4761 45.3294 54.2663 45.759C54.0565 46.1886 53.9542 46.6632 53.9682 47.1416C53.9516 47.5264 54.0168 47.9103 54.1594 48.2678C54.3021 48.6253 54.5189 48.9481 54.7954 49.2147C55.3469 49.7346 56.1458 50.0768 57.1922 50.2411L59.2345 50.5481C59.5945 50.5789 59.9413 50.6982 60.2445 50.8955C60.3456 50.9716 60.4271 51.071 60.4821 51.1852C60.5372 51.2994 60.5643 51.4253 60.5611 51.5522C60.5557 51.729 60.4999 51.9005 60.4002 52.0463C60.3006 52.1921 60.1615 52.3061 59.9993 52.3747C59.5318 52.5994 59.0164 52.7049 58.4988 52.6817C57.9285 52.6798 57.3628 52.579 56.8266 52.3836C56.1979 52.1522 55.5991 51.846 55.0429 51.4715L53.6561 53.3384C54.3005 53.8401 55.0346 54.2129 55.8188 54.4365C56.7004 54.6937 57.6143 54.8213 58.5322 54.8153C59.1618 54.8203 59.7886 54.7304 60.3917 54.5486C60.9216 54.3925 61.4192 54.142 61.861 53.809C62.2583 53.508 62.5881 53.1262 62.8286 52.6884C63.0673 52.2592 63.191 51.775 63.1876 51.2832C63.2003 50.9043 63.1326 50.527 62.9888 50.1765C62.845 49.826 62.6285 49.5103 62.3537 49.2505L62.3627 49.2416ZM23.6636 51.5903L25.5008 53.2711C24.304 54.301 22.7705 54.8494 21.1955 54.8108C20.4204 54.8175 19.6515 54.6714 18.9324 54.3805C18.2585 54.1096 17.6419 53.7126 17.1153 53.2106C16.5903 52.7001 16.1741 52.0875 15.892 51.4102C15.6099 50.7329 15.4678 50.0049 15.4743 49.2707C15.4696 48.5292 15.6113 47.7941 15.8913 47.108C16.3021 46.1028 17.0027 45.2442 17.9031 44.6427C18.8035 44.0411 19.8624 43.7243 20.9435 43.7329C21.6647 43.7286 22.3782 43.8815 23.0349 44.1811C23.6671 44.4643 24.2365 44.872 24.7093 45.3801C25.1906 45.9073 25.5647 46.524 25.8107 47.1954C26.0811 47.9274 26.2164 48.7028 26.2098 49.4836V50.2209H18.297C18.4731 50.8705 18.861 51.4418 19.3984 51.8435C19.9527 52.2568 20.6281 52.4728 21.3181 52.4576C21.7627 52.462 22.2045 52.3861 22.6224 52.2335C23.0104 52.0947 23.3652 51.8755 23.6636 51.5903ZM18.2769 48.2039H23.4808C23.3206 47.6011 22.9824 47.0612 22.5109 46.6553C22.0626 46.2594 21.4845 46.0439 20.8878 46.0502C20.2847 46.037 19.6974 46.245 19.2357 46.6351C18.7602 47.044 18.4248 47.5928 18.2769 48.2039ZM40.5729 58.1254H42.8983V63.8963H43.8927V58.1254H46.2182V57.2424H40.5595L40.5729 58.1254ZM32.8674 60.5682C32.8727 61.2542 32.6753 61.9264 32.3001 62.4995C31.925 63.0726 31.3891 63.5209 30.7602 63.7875C30.1314 64.0542 29.4379 64.1271 28.7678 63.9972C28.0976 63.8673 27.481 63.5404 26.9959 63.0578C26.5108 62.5752 26.1791 61.9587 26.0429 61.2865C25.9067 60.6143 25.9721 59.9165 26.2309 59.2817C26.4896 58.6469 26.9299 58.1035 27.4962 57.7205C28.0624 57.3375 28.729 57.1321 29.4115 57.1303C29.8639 57.1238 30.3131 57.208 30.7328 57.378C31.1524 57.5481 31.5341 57.8006 31.8555 58.1207C32.1769 58.4409 32.4315 58.8222 32.6045 59.2425C32.7775 59.6627 32.8653 60.1134 32.8629 60.5682H32.8674ZM31.8552 60.5682C31.8429 60.0875 31.6899 59.621 31.4155 59.227C31.141 58.8331 30.7571 58.5292 30.3118 58.3533C29.8665 58.1774 29.3795 58.1372 28.9116 58.2379C28.4437 58.3386 28.0157 58.5756 27.6811 58.9193C27.3464 59.2631 27.12 59.6983 27.03 60.1707C26.94 60.643 26.9904 61.1316 27.1751 61.5753C27.3597 62.019 27.6702 62.3982 28.068 62.6655C28.4658 62.9328 28.9331 63.0764 29.4115 63.0783C29.7374 63.0806 30.0604 63.0167 30.3611 62.8907C30.6619 62.7646 30.9343 62.5788 31.162 62.3445C31.3897 62.1102 31.568 61.8321 31.6864 61.5269C31.8047 61.2217 31.8606 60.8956 31.8507 60.5682H31.8552ZM34.3077 54.6046H37.1058V47.9574C37.13 47.395 37.0379 46.8337 36.8354 46.3089C36.6328 45.7842 36.3242 45.3073 35.9291 44.9084C35.534 44.5095 35.0609 44.1974 34.5396 43.9915C34.0184 43.7857 33.4604 43.6908 32.9008 43.7127C32.3485 43.7064 31.7993 43.7966 31.2777 43.9794C30.7827 44.1555 30.3229 44.4189 29.9199 44.7571V43.9077H27.1284V54.5956H29.9243V47.1999C30.164 46.8626 30.4835 46.5907 30.8541 46.4088C31.2458 46.221 31.6754 46.1266 32.1093 46.1331C32.4038 46.1193 32.698 46.1666 32.9735 46.2723C33.2489 46.378 33.4997 46.5396 33.7102 46.7472C33.9137 46.9632 34.0719 47.2182 34.1753 47.4969C34.2788 47.7757 34.3253 48.0725 34.3122 48.3698L34.3077 54.6046ZM38.1203 61.0344L39.5963 63.8963H38.4971L37.1304 61.1644H35.2687V63.8941H34.2765V57.2424H37.282C38.5974 57.2424 39.487 58.0402 39.487 59.2101C39.4903 59.6222 39.3587 60.024 39.1125 60.3536C38.8664 60.6832 38.5193 60.9224 38.1248 61.0344H38.1203ZM37.1928 60.3396C37.9687 60.3396 38.4793 59.8914 38.4793 59.2191C38.4793 58.5467 37.9687 58.0985 37.1928 58.0985H35.2642V60.3217L37.1928 60.3396Z" fill="currentColor"></path></g><defs><clipPath id="clip0_4007_2215"><rect width="63" height="39" fill="currentColor"></rect></clipPath></defs></svg>