<svg id="Layer_1" data-name="Layer 1" xmlns="http://www.w3.org/2000/svg" viewBox="0 0 759.17 503.55" fill="black">
    <path
        d="M533.46,168.18c-14.05,0-30.16-9.7-41.13-17.74a107.52,107.52,0,0,1-27-28.81c-5.93-9.34-8-22.28-10.09-33.13a9.3,9.3,0,0,1-.17-1.83V75.3a9.94,9.94,0,0,0-9.93-9.93H401.54a9.94,9.94,0,0,0-9.94,9.93v43.56a9.94,9.94,0,0,0,9.94,9.94h14.58c11.73,0,24.73,6,34.45,12.13a126.29,126.29,0,0,1,28.36,25c6.48,7.57,17.73,19.15,16.95,29.85a30.22,30.22,0,0,1-4.05,12.13c-15.34,28-47.74,54.94-81,53.1-6.42-.36-14.29-.83-17.69,4.61-1.62,2.58-1.66,5.8-1.65,8.83q0,18.24.08,36.47c0,4,.25,8.54,3.29,11.15,2.51,2.17,6.14,2.29,9.46,2.29l36.5.07c4.18,0,8.89-.2,11.74-3.26,3-3.22,2.67-8.19,2.38-12.58-1.12-16.39,1.62-30.81,11.88-44,5.68-7.31,12.58-13.56,19.44-19.78,11.4-10.32,23.5-21.48,39.68-22.31h14.43a9.94,9.94,0,0,0,9.93-9.93V178.12a9.94,9.94,0,0,0-9.93-9.94Z" />
    <path
        d="M225.24,102.81c12.35,0,25.42-7.29,35.53-13.84,16-10.41,31.08-25.11,37.11-43.59a177.63,177.63,0,0,0,5.63-22.25,10.13,10.13,0,0,0,.17-1.83V9.93A9.93,9.93,0,0,1,313.61,0h43.56a9.94,9.94,0,0,1,9.93,9.93V53.49a9.94,9.94,0,0,1-9.93,9.94H342.58c-15.74,0-34.37,9.83-45.46,20.4-6.66,6.34-13.26,12.77-19.27,19.73-5.2,6-12.83,14-14.69,22-1.12,4.8.3,9.86,2.51,14.27,7.92,15.85,22.2,29.45,36,40.39,10.67,8.43,24,15.33,37.86,15.33h17.6a9.94,9.94,0,0,1,9.93,9.94v43.56a9.94,9.94,0,0,1-9.93,9.93H313.61a9.93,9.93,0,0,1-9.93-9.93V227.65c0-.27,0-.5,0-.77-1.5-18.26-14.25-31.32-27.15-43-12.64-11.4-25-26.77-43.78-26.77H218.3a9.93,9.93,0,0,1-9.93-9.93V112.74a9.93,9.93,0,0,1,9.93-9.93Z" />
    <rect x="423.6" y="183.45" width="22.84" height="22.84" rx="1.93" />
    <rect x="511.39" y="89.18" width="22.84" height="22.84" rx="1.93" />
    <rect x="583.92" y="181.17" width="16.75" height="16.75" rx="1.93" />
    <rect x="503.23" y="281.28" width="16.31" height="16.31" rx="2.03" />
    <rect x="313.87" y="153.18" width="16.31" height="16.31" rx="1.93" />
    <rect x="341.58" y="84.36" width="22.84" height="22.84" rx="1.93" transform="translate(706 191.55) rotate(-180)" />
    <rect x="224.95" y="28.09" width="22.84" height="22.84" rx="1.93"
        transform="translate(472.74 79.01) rotate(-180)" />
    <rect x="158.5" y="120.08" width="16.75" height="16.75" rx="1.93"
        transform="translate(333.76 256.91) rotate(-180)" />
    <rect x="239.63" y="220.19" width="16.31" height="16.31" rx="1.93"
        transform="translate(495.57 456.68) rotate(-180)" />
    <rect x="408.38" y="28.09" width="16.31" height="16.31" rx="1.93"
        transform="translate(833.07 72.48) rotate(-180)" />
    <path
        d="M0,419.19v-2.76H16.07v1.89c0,7.75,4.57,12.79,11.63,12.79,6.64,0,11.21-4.95,11.21-12.79V369.65H55v49.54c0,15.95-10.93,27.27-27.28,27.27C11.52,446.46,0,435.14,0,419.19Z" />
    <path
        d="M141.75,430.57H111.84l-5.16,14.25H89.42l29.47-75.17h15.35l30.41,75.17H147Zm-24.84-14.18h19.73l-9.91-26.87Z" />
    <path
        d="M298.8,369.65l-23.18,75.17H261.15l-16.79-42.14-16.3,42.14H213.59l-23.72-75.17h17.26l14.75,50,19.75-49.19h5.48l20.29,49.17,14.43-49.93Z" />
    <path
        d="M330.52,407.24c0-22.32,17.17-39.23,40.12-39.23s39.93,16.82,39.93,39.23-17.08,39.22-39.93,39.22S330.52,429.55,330.52,407.24Zm63.58,0c0-13.64-10.07-23.88-23.46-23.88S347,393.7,347,407.24s10.24,23.87,23.64,23.87S394.1,420.87,394.1,407.24Z" />
    <path
        d="M478,419.17H467.52v25.65H451.25V369.65h30.34c15.06,0,26.28,10.37,26.28,24.87a23.8,23.8,0,0,1-13.7,21.88l16.63,28.42H492.64Zm-10.43-15h13c6.81,0,10.87-4.09,10.87-9.73s-4.06-9.73-10.87-9.73h-13Z" />
    <path
        d="M546,420.46h16.39c0,7.27,6,10.77,12.65,10.77,6.12,0,12.11-3.23,12.11-8.83,0-5.83-6.86-7.43-15-9.33-11.33-2.8-25.1-6.09-25.1-22.28,0-14.42,10.62-22.54,27.27-22.54,17.28,0,27.1,9.22,27.1,24.2H585.29c0-6.47-5.34-9.51-11.42-9.51-5.27,0-10.61,2.23-10.61,7.16,0,5.29,6.53,6.89,14.48,8.79,11.46,2.9,25.85,6.47,25.85,23.31,0,16.24-12.93,24.11-28.49,24.11C557.84,446.31,546,436.62,546,420.46Z" />
    <path d="M687.35,444.82l-26.54-36.68v36.68H644.55V369.65h16.26v34.72l24.64-34.72h19l-25.58,36,28.37,39.15Z" />
    <path d="M742.91,369.65h16.26v75.17H742.91Z" />
    <path
        d="M83.87,494.75h4.39c0,2.94,2.43,4.57,5.51,4.57,2.81,0,5.21-1.47,5.21-3.89,0-2.62-2.83-3.28-6-4-4-1-8.66-2.09-8.66-7.53,0-4.76,3.6-7.56,9.22-7.56s9.1,3.11,9.1,8.08H98.36c0-2.63-2.17-4.05-4.92-4.05s-4.8,1.2-4.8,3.35c0,2.43,2.71,3.09,5.84,3.84,4.1,1,8.92,2.19,8.92,7.85,0,5.27-4.25,8.07-9.59,8.07C87.9,503.45,83.87,500.14,83.87,494.75Z" />
    <path
        d="M130.4,503.54c-8,0-13.9-5.86-13.9-13.67s5.9-13.66,13.9-13.66,13.88,5.85,13.88,13.66-5.89,13.68-13.88,13.68Zm9.48-13.67a9.49,9.49,0,1,0-9.48,9.51A9.25,9.25,0,0,0,139.88,489.87Z" />
    <path d="M163.41,480.76v7.46h9.89v4h-9.89v10.87h-4.33V476.7h15.2v4.06Z" />
    <path d="M206,480.73h-7.73v22.32h-4.32V480.73H186.2v-4H206Z" />
    <path
        d="M254.71,476.7l-8.22,26.35h-3.84l-6.66-17-6.49,17h-3.84l-8.41-26.35h4.59l6,19.45,7.37-19.06h1.6l7.59,19.07,5.82-19.46Z" />
    <path d="M282.77,497.31H271l-2.24,5.74h-4.59l10.58-26.35h4.07l10.9,26.35h-4.69Zm-10.26-3.87h8.75l-4.4-11.11Z" />
    <path
        d="M312.73,493.3h-5v9.75h-4.32V476.7h10.25c5.08,0,8.86,3.48,8.86,8.34a8,8,0,0,1-5.36,7.65l6.08,10.36h-4.85Zm-5-4.05h5.68c2.86,0,4.71-1.77,4.71-4.25s-1.85-4.25-4.71-4.25h-5.68Z" />
    <path d="M353.42,499v4.09H337.71V476.7H353v4.05H342v6.88h10v4H342V499Z" />
    <path
        d="M386,494.75h4.38c0,2.94,2.43,4.57,5.52,4.57,2.8,0,5.2-1.47,5.2-3.89,0-2.62-2.82-3.28-6-4-4-1-8.66-2.09-8.66-7.53,0-4.76,3.6-7.56,9.22-7.56s9.1,3.11,9.1,8.08h-4.27c0-2.63-2.18-4.05-4.93-4.05s-4.79,1.2-4.79,3.35c0,2.43,2.7,3.09,5.83,3.84,4.1,1,8.92,2.19,8.92,7.85,0,5.27-4.25,8.07-9.59,8.07C390,503.45,386,500.14,386,494.75Z" />
    <path
        d="M432.52,503.54c-8,0-13.9-5.86-13.9-13.67s5.9-13.66,13.9-13.66,13.88,5.85,13.88,13.66-5.89,13.68-13.88,13.68ZM442,489.87a9.49,9.49,0,1,0-9.48,9.51A9.25,9.25,0,0,0,442,489.87Z" />
    <path d="M476.48,499v4H461.21V476.7h4.32V499Z" />
    <path
        d="M489.15,493.19V476.7h4.36v16.23c0,3.89,2.58,6.45,6.23,6.45s6.21-2.56,6.21-6.45V476.7h4.35v16.49c0,6.08-4.51,10.36-10.56,10.36S489.15,499.27,489.15,493.19Z" />
    <path d="M543.76,480.73H536v22.32H531.7V480.73H524v-4h19.78Z" />
    <path d="M557.71,476.7H562v26.35h-4.32Z" />

    <path
        d="M590.74,503.54c-8,0-13.9-5.86-13.9-13.67s5.9-13.66,13.9-13.66,13.88,5.85,13.88,13.66-5.89,13.68-13.88,13.68Zm9.48-13.67a9.49,9.49,0,1,0-9.48,9.51A9.25,9.25,0,0,0,600.22,489.87Z" />

    <path d="M641,476.7v26.35h-3.63l-13.69-18.81v18.81h-4.24V476.7h3.91l13.41,18.51V476.7Z" />

    <path
        d="M655.77,494.75h4.39c0,2.94,2.43,4.57,5.51,4.57,2.81,0,5.2-1.47,5.2-3.89,0-2.62-2.82-3.28-6-4-4-1-8.66-2.09-8.66-7.53,0-4.76,3.6-7.56,9.22-7.56s9.1,3.11,9.1,8.08h-4.28c0-2.63-2.17-4.05-4.92-4.05s-4.8,1.2-4.8,3.35c0,2.43,2.71,3.09,5.84,3.84,4.09,1,8.92,2.19,8.92,7.85,0,5.27-4.25,8.07-9.59,8.07C659.8,503.45,655.77,500.14,655.77,494.75Z" />
</svg>